Coordinates
version=1
nRows=26
nColumns=38
inDegrees=no

Units are S.I. units (second, meters, Newtons, ...)
If the header above contains a line with 'inDegrees', this indicates whether rotational values are in degrees (yes) or radians (no).

endheader
time	pelvis_tilt	pelvis_list	pelvis_rotation	pelvis_tx	pelvis_ty	pelvis_tz	hip_flexion_r	hip_adduction_r	hip_rotation_r	knee_angle_r	ankle_angle_r	subtalar_angle_r	mtp_angle_r	hip_flexion_l	hip_adduction_l	hip_rotation_l	knee_angle_l	ankle_angle_l	subtalar_angle_l	mtp_angle_l	lumbar_extension	lumbar_bending	lumbar_rotation	arm_flex_r	arm_add_r	arm_rot_r	elbow_flex_r	pro_sup_r	wrist_flex_r	wrist_dev_r	arm_flex_l	arm_add_l	arm_rot_l	elbow_flex_l	pro_sup_l	wrist_flex_l	wrist_dev_l
1.26	-1.73641	1.52419	0.357075	0.717628	0.203309	0.923002	0.517836	-0.0943371	-0.301374	0.397736	0.0544967	0	0	-0.215394	-0.0592733	0.0312936	0.57721	0.240263	0	0	-0.0409775	-0.00548675	-0.285625	-0.133422	-0.108671	-0.0871306	0.33131	1.31161	0	0	-0.209899	-0.520193	0.597108	0.645863	0.649728	0	0
1.27	-1.77584	1.51647	0.395254	0.716735	0.189426	0.923407	0.532133	-0.0901747	-0.293924	0.444732	0.0602383	0	0	-0.186108	-0.0693074	0.029472	0.638475	0.197905	0	0	-0.0350241	0.00551415	-0.286367	-0.134718	-0.114389	-0.0761968	0.336408	1.30477	0	0	-0.217438	-0.515204	0.599829	0.650717	0.626358	0	0
1.28	-1.69723	1.51075	0.316664	0.716255	0.175647	0.924418	0.53524	-0.0840873	-0.2854	0.484338	0.0626804	0	0	-0.162252	-0.0782128	0.0329183	0.699876	0.149884	0	0	-0.037808	0.0178964	-0.289001	-0.13298	-0.11919	-0.076109	0.338478	1.31085	0	0	-0.225216	-0.506419	0.586433	0.651125	0.64719	0	0
1.29	-1.62726	1.50555	0.248361	0.715894	0.162154	0.925267	0.534077	-0.0773799	-0.278274	0.515341	0.0588807	0	0	-0.134568	-0.0857614	0.0392241	0.765738	0.0981903	0	0	-0.041592	0.0293416	-0.292646	-0.131789	-0.123536	-0.0789482	0.341444	1.32475	0	0	-0.231001	-0.504002	0.592346	0.658953	0.62926	0	0
1.3	-1.56904	1.50017	0.192256	0.715353	0.148949	0.925966	0.527783	-0.0690496	-0.275274	0.535234	0.0524294	0	0	-0.103689	-0.0929959	0.046655	0.833608	0.0446596	0	0	-0.0457757	0.0401931	-0.296357	-0.131509	-0.128067	-0.0766069	0.346444	1.33161	0	0	-0.2355	-0.502824	0.598592	0.665008	0.620172	0	0
1.31	-1.54438	1.49462	0.169532	0.714591	0.136074	0.926368	0.518851	-0.0599668	-0.277319	0.545712	0.0482865	0	0	-0.0678789	-0.09993	0.0539424	0.902893	-0.00973897	0	0	-0.0476888	0.0497598	-0.29989	-0.139349	-0.141156	-0.00921295	0.369159	1.24898	0	0	-0.238623	-0.504516	0.611784	0.671631	0.605502	0	0
1.32	-1.54186	1.4899	0.168639	0.713669	0.123452	0.926693	0.506966	-0.050794	-0.281791	0.547544	0.047192	0	0	-0.0295119	-0.105885	0.060705	0.9699	-0.064193	0	0	-0.0481443	0.0573805	-0.299599	-0.140352	-0.140661	-0.0397393	0.372701	1.30166	0	0	-0.235951	-0.508421	0.635116	0.674458	0.595247	0	0
1.33	-1.54684	1.48677	0.174196	0.712756	0.111048	0.927096	0.493375	-0.0425303	-0.28583	0.545022	0.0478372	0	0	0.00824697	-0.109136	0.066843	1.03088	-0.119128	0	0	-0.0473655	0.0624272	-0.299407	-0.144644	-0.146895	-0.0191996	0.384714	1.27462	0	0	-0.234835	-0.508711	0.64297	0.672586	0.606051	0	0
1.34	-1.55342	1.48554	0.1797	0.711834	0.0988603	0.927752	0.479566	-0.0353114	-0.286634	0.541621	0.047923	0	0	0.043711	-0.109108	0.0714182	1.08434	-0.172278	0	0	-0.0466235	0.0648699	-0.296262	-0.14736	-0.149575	-0.022884	0.392152	1.28065	0	0	-0.231372	-0.510705	0.657207	0.671554	0.607466	0	0
1.35	-1.5579	1.48504	0.181802	0.710921	0.0868911	0.928764	0.466432	-0.028001	-0.283347	0.539274	0.0469433	0	0	0.0773519	-0.106864	0.0758973	1.13363	-0.212549	0	0	-0.0462406	0.0662223	-0.291965	-0.149326	-0.151946	-0.026881	0.399128	1.28385	0	0	-0.228342	-0.511674	0.666972	0.670603	0.610354	0	0
1.36	-1.55057	1.48525	0.171055	0.710033	0.0750883	0.930196	0.45352	-0.020664	-0.275414	0.539469	0.0469393	0	0	0.109279	-0.103283	0.0800527	1.18255	-0.225024	0	0	-0.0471425	0.0667665	-0.287031	-0.150097	-0.15377	-0.0317592	0.40506	1.28627	0	0	-0.226232	-0.511702	0.672462	0.670011	0.613955	0	0
1.37	-1.5267	1.48665	0.143129	0.709198	0.0633511	0.93204	0.439558	-0.0144482	-0.264915	0.541565	0.0499915	0	0	0.139111	-0.0987174	0.0828418	1.22901	-0.21308	0	0	-0.0497411	0.0660536	-0.281734	-0.150131	-0.155037	-0.0366644	0.409902	1.28843	0	0	-0.225362	-0.511235	0.673442	0.670329	0.617231	0	0
1.38	-1.48474	1.48963	0.0964264	0.708393	0.0516475	0.934247	0.423102	-0.0101202	-0.254023	0.543067	0.0565473	0	0	0.166453	-0.0927135	0.0837351	1.27033	-0.187912	0	0	-0.0540493	0.0635254	-0.275818	-0.149289	-0.155513	-0.0410141	0.412842	1.29029	0	0	-0.225298	-0.510671	0.671009	0.671816	0.619867	0	0
1.39	-1.43805	1.49344	0.0442753	0.707615	0.0400139	0.936634	0.404847	-0.00723898	-0.244321	0.541936	0.0651589	0	0	0.192808	-0.0857072	0.0830538	1.30596	-0.158709	0	0	-0.0586451	0.0599648	-0.270105	-0.148934	-0.159487	-0.0171774	0.418058	1.24772	0	0	-0.227581	-0.507025	0.654525	0.670814	0.642926	0	0
1.4	-1.38858	1.49769	-0.010852	0.706835	0.0285314	0.939161	0.38451	-0.00536578	-0.237078	0.53633	0.0743033	0	0	0.218891	-0.0776508	0.0818314	1.3355	-0.132768	0	0	-0.0635299	0.055698	-0.261572	-0.141869	-0.150437	-0.0735906	0.404464	1.32757	0	0	-0.224545	-0.508283	0.659976	0.673746	0.623916	0	0
1.41	-1.34009	1.50059	-0.0655467	0.706054	0.0171695	0.941685	0.362134	-0.00216354	-0.231667	0.525667	0.083068	0	0	0.245171	-0.0706255	0.0802586	1.35954	-0.111505	0	0	-0.06795	0.0528832	-0.253231	-0.139989	-0.149234	-0.078779	0.403778	1.32764	0	0	-0.222181	-0.507297	0.658028	0.673553	0.619949	0	0
1.42	-1.29898	1.50254	-0.113254	0.705242	0.00587425	0.944137	0.33882	0.00185583	-0.228145	0.511435	0.0909391	0	0	0.271714	-0.0646825	0.0785959	1.37808	-0.0943352	0	0	-0.0716507	0.0510128	-0.244273	-0.138511	-0.148058	-0.0826109	0.403253	1.32524	0	0	-0.219159	-0.506136	0.656173	0.672572	0.61789	0	0
1.43	-1.27077	1.50377	-0.148446	0.704396	-0.00532867	0.94643	0.315907	0.00638296	-0.226667	0.495633	0.0981067	0	0	0.298805	-0.0598408	0.0767769	1.39144	-0.0803696	0	0	-0.0745328	0.0499817	-0.234714	-0.137508	-0.146961	-0.085112	0.40324	1.32025	0	0	-0.215886	-0.504874	0.65384	0.671533	0.618367	0	0
1.44	-1.25042	1.50469	-0.176373	0.703491	-0.0164413	0.948581	0.293522	0.0111828	-0.225097	0.479165	0.104597	0	0	0.325662	-0.0559777	0.074175	1.39961	-0.0682367	0	0	-0.0772038	0.0492438	-0.224269	-0.136712	-0.145752	-0.0862174	0.403402	1.31232	0	0	-0.212586	-0.503841	0.650659	0.671039	0.620704	0	0
1.45	-1.22355	1.50578	-0.211341	0.702548	-0.027503	0.95061	0.27094	0.0156435	-0.222197	0.462559	0.110481	0	0	0.350898	-0.0524613	0.0707333	1.40253	-0.0563496	0	0	-0.0806145	0.0480925	-0.213229	-0.136764	-0.144521	-0.0858913	0.405649	1.30162	0	0	-0.209755	-0.503424	0.646163	0.672134	0.624927	0	0
1.46	-1.20761	1.51546	-0.233308	0.70145	-0.0390663	0.951532	0.243006	0.0140241	-0.210944	0.429924	0.116897	0	0	0.377543	-0.0401701	0.0661038	1.40138	-0.0430321	0	0	-0.079164	0.0361988	-0.204845	-0.138624	-0.138979	-0.0970179	0.405557	1.31433	0	0	-0.211419	-0.50994	0.645776	0.681781	0.618471	0	0
1.47	-1.14308	1.51816	-0.306328	0.700545	-0.0500538	0.953245	0.220293	0.016074	-0.203548	0.41525	0.122379	0	0	0.39877	-0.0352646	0.060747	1.39447	-0.0303217	0	0	-0.0842339	0.0323475	-0.194172	-0.140454	-0.139829	-0.0768114	0.412693	1.27415	0	0	-0.210808	-0.509685	0.632745	0.684978	0.635196	0	0
1.48	-1.0842	1.52199	-0.373109	0.699736	-0.0609642	0.954645	0.201001	0.0161492	-0.195214	0.405028	0.128828	0	0	0.420174	-0.0293421	0.0551305	1.38347	-0.0181528	0	0	-0.0879883	0.0271079	-0.183853	-0.139869	-0.136693	-0.0817045	0.413184	1.278	0	0	-0.208449	-0.511289	0.629432	0.687752	0.635056	0	0
1.49	-0.988258	1.52575	-0.476999	0.698935	-0.0718483	0.955949	0.181153	0.015199	-0.185596	0.395683	0.134791	0	0	0.438786	-0.0232441	0.0490987	1.36793	-0.00524272	0	0	-0.0930291	0.0208504	-0.174105	-0.138698	-0.13297	-0.0871443	0.41329	1.28038	0	0	-0.206433	-0.513027	0.625091	0.689925	0.636174	0	0
1.5	-0.857833	1.52895	-0.614966	0.698149	-0.0827218	0.957095	0.161314	0.0131935	-0.176767	0.387505	0.140734	0	0	0.455272	-0.0171662	0.0424676	1.34813	0.00865408	0	0	-0.0987896	0.0139076	-0.165331	-0.136971	-0.128646	-0.0934321	0.412557	1.28242	0	0	-0.204492	-0.514892	0.620781	0.691116	0.638687	0	0
1.51	-0.70625	1.53105	-0.773339	0.697415	-0.0936009	0.958045	0.141513	0.010652	-0.169446	0.37999	0.147107	0	0	0.469852	-0.0113228	0.0360771	1.32423	0.0225178	0	0	-0.104846	0.00693085	-0.157591	-0.135019	-0.12402	-0.0998274	0.411541	1.28382	0	0	-0.202344	-0.516742	0.616768	0.691569	0.641069	0	0
